<mxfile host="app.diagrams.net" modified="2021-12-01T08:02:59.031Z" agent="5.0 (Windows NT 10.0; Win64; x64) AppleWebKit/537.36 (KHTML, like Gecko) Chrome/96.0.4664.55 Safari/537.36 Edg/96.0.1054.34" etag="9p1h1tvUKmawb1Du9SSN" version="15.8.7" type="github">
  <diagram id="prtHgNgQTEPvFCAcTncT" name="Page-1">
    <mxGraphModel dx="1117" dy="620" grid="1" gridSize="10" guides="1" tooltips="1" connect="1" arrows="1" fold="1" page="1" pageScale="1" pageWidth="827" pageHeight="1169" background="#F1FAEE" math="0" shadow="0">
      <root>
        <mxCell id="0" />
        <mxCell id="1" parent="0" />
        <mxCell id="dNxyNK7c78bLwvsdeMH5-19" value="Pool" style="swimlane;html=1;childLayout=stackLayout;resizeParent=1;resizeParentMax=0;horizontal=0;startSize=20;horizontalStack=0;fillColor=#A8DADC;strokeColor=#457B9D;fontColor=#1D3557;" parent="1" vertex="1">
          <mxGeometry x="120" y="120" width="2000" height="390" as="geometry" />
        </mxCell>
        <mxCell id="dNxyNK7c78bLwvsdeMH5-20" value="患者" style="swimlane;html=1;startSize=20;horizontal=0;fillColor=#A8DADC;strokeColor=#457B9D;fontColor=#1D3557;" parent="dNxyNK7c78bLwvsdeMH5-19" vertex="1">
          <mxGeometry x="20" width="1980" height="140" as="geometry">
            <mxRectangle x="20" width="1980" height="20" as="alternateBounds" />
          </mxGeometry>
        </mxCell>
        <mxCell id="UX9EoWcXJ1RKvdyOowkk-16" style="edgeStyle=orthogonalEdgeStyle;rounded=0;orthogonalLoop=1;jettySize=auto;html=1;exitX=1;exitY=0.5;exitDx=0;exitDy=0;entryX=0;entryY=0.5;entryDx=0;entryDy=0;strokeColor=#457B9D;fontColor=#1D3557;labelBackgroundColor=#F1FAEE;" edge="1" parent="dNxyNK7c78bLwvsdeMH5-20" source="UX9EoWcXJ1RKvdyOowkk-9" target="UX9EoWcXJ1RKvdyOowkk-15">
          <mxGeometry relative="1" as="geometry" />
        </mxCell>
        <mxCell id="UX9EoWcXJ1RKvdyOowkk-9" value="预问诊" style="rounded=0;whiteSpace=wrap;html=1;fontFamily=Helvetica;fontSize=12;fontColor=#1D3557;align=center;fillColor=#A8DADC;strokeColor=#457B9D;" vertex="1" parent="dNxyNK7c78bLwvsdeMH5-20">
          <mxGeometry x="150" y="40" width="80" height="60" as="geometry" />
        </mxCell>
        <mxCell id="UX9EoWcXJ1RKvdyOowkk-14" style="edgeStyle=orthogonalEdgeStyle;rounded=0;orthogonalLoop=1;jettySize=auto;html=1;exitX=1;exitY=0.5;exitDx=0;exitDy=0;entryX=0;entryY=0.5;entryDx=0;entryDy=0;strokeColor=#457B9D;fontColor=#1D3557;labelBackgroundColor=#F1FAEE;" edge="1" parent="dNxyNK7c78bLwvsdeMH5-20" source="UX9EoWcXJ1RKvdyOowkk-13" target="UX9EoWcXJ1RKvdyOowkk-9">
          <mxGeometry relative="1" as="geometry" />
        </mxCell>
        <mxCell id="UX9EoWcXJ1RKvdyOowkk-13" value="开始" style="ellipse;whiteSpace=wrap;html=1;fillColor=#A8DADC;strokeColor=#457B9D;fontColor=#1D3557;" vertex="1" parent="dNxyNK7c78bLwvsdeMH5-20">
          <mxGeometry x="60" y="50" width="40" height="40" as="geometry" />
        </mxCell>
        <mxCell id="UX9EoWcXJ1RKvdyOowkk-19" value="" style="edgeStyle=orthogonalEdgeStyle;rounded=0;orthogonalLoop=1;jettySize=auto;html=1;strokeColor=#457B9D;fontColor=#1D3557;labelBackgroundColor=#F1FAEE;" edge="1" parent="dNxyNK7c78bLwvsdeMH5-20" source="UX9EoWcXJ1RKvdyOowkk-15" target="UX9EoWcXJ1RKvdyOowkk-18">
          <mxGeometry relative="1" as="geometry" />
        </mxCell>
        <mxCell id="UX9EoWcXJ1RKvdyOowkk-15" value="智能导诊" style="rounded=0;whiteSpace=wrap;html=1;fontFamily=Helvetica;fontSize=12;fontColor=#1D3557;align=center;fillColor=#A8DADC;strokeColor=#457B9D;" vertex="1" parent="dNxyNK7c78bLwvsdeMH5-20">
          <mxGeometry x="280" y="40" width="80" height="60" as="geometry" />
        </mxCell>
        <mxCell id="UX9EoWcXJ1RKvdyOowkk-21" style="edgeStyle=orthogonalEdgeStyle;rounded=0;orthogonalLoop=1;jettySize=auto;html=1;exitX=1;exitY=0.5;exitDx=0;exitDy=0;entryX=0;entryY=0.5;entryDx=0;entryDy=0;strokeColor=#457B9D;fontColor=#1D3557;labelBackgroundColor=#F1FAEE;" edge="1" parent="dNxyNK7c78bLwvsdeMH5-20" source="UX9EoWcXJ1RKvdyOowkk-18" target="UX9EoWcXJ1RKvdyOowkk-20">
          <mxGeometry relative="1" as="geometry" />
        </mxCell>
        <mxCell id="UX9EoWcXJ1RKvdyOowkk-18" value="支付订单" style="rounded=0;whiteSpace=wrap;html=1;fontFamily=Helvetica;fontSize=12;fontColor=#1D3557;align=center;fillColor=#A8DADC;strokeColor=#457B9D;" vertex="1" parent="dNxyNK7c78bLwvsdeMH5-20">
          <mxGeometry x="410" y="40" width="80" height="60" as="geometry" />
        </mxCell>
        <mxCell id="UX9EoWcXJ1RKvdyOowkk-25" value="" style="edgeStyle=orthogonalEdgeStyle;rounded=0;orthogonalLoop=1;jettySize=auto;html=1;strokeColor=#457B9D;fontColor=#1D3557;labelBackgroundColor=#F1FAEE;" edge="1" parent="dNxyNK7c78bLwvsdeMH5-20" source="UX9EoWcXJ1RKvdyOowkk-20" target="UX9EoWcXJ1RKvdyOowkk-24">
          <mxGeometry relative="1" as="geometry" />
        </mxCell>
        <mxCell id="UX9EoWcXJ1RKvdyOowkk-20" value="进入候诊室" style="rounded=0;whiteSpace=wrap;html=1;fontFamily=Helvetica;fontSize=12;fontColor=#1D3557;align=center;fillColor=#A8DADC;strokeColor=#457B9D;" vertex="1" parent="dNxyNK7c78bLwvsdeMH5-20">
          <mxGeometry x="540" y="40" width="80" height="60" as="geometry" />
        </mxCell>
        <mxCell id="UX9EoWcXJ1RKvdyOowkk-27" value="" style="edgeStyle=orthogonalEdgeStyle;rounded=0;orthogonalLoop=1;jettySize=auto;html=1;strokeColor=#457B9D;fontColor=#1D3557;labelBackgroundColor=#F1FAEE;" edge="1" parent="dNxyNK7c78bLwvsdeMH5-20" source="UX9EoWcXJ1RKvdyOowkk-24" target="UX9EoWcXJ1RKvdyOowkk-26">
          <mxGeometry relative="1" as="geometry" />
        </mxCell>
        <mxCell id="UX9EoWcXJ1RKvdyOowkk-24" value="信息补充" style="rounded=0;whiteSpace=wrap;html=1;fontFamily=Helvetica;fontSize=12;fontColor=#1D3557;align=center;fillColor=#A8DADC;strokeColor=#457B9D;" vertex="1" parent="dNxyNK7c78bLwvsdeMH5-20">
          <mxGeometry x="670" y="40" width="80" height="60" as="geometry" />
        </mxCell>
        <mxCell id="UX9EoWcXJ1RKvdyOowkk-26" value="问诊提醒" style="rounded=0;whiteSpace=wrap;html=1;fontFamily=Helvetica;fontSize=12;fontColor=#1D3557;align=center;fillColor=#A8DADC;strokeColor=#457B9D;" vertex="1" parent="dNxyNK7c78bLwvsdeMH5-20">
          <mxGeometry x="800" y="40" width="80" height="60" as="geometry" />
        </mxCell>
        <mxCell id="UX9EoWcXJ1RKvdyOowkk-39" style="edgeStyle=orthogonalEdgeStyle;rounded=0;orthogonalLoop=1;jettySize=auto;html=1;exitX=1;exitY=0.5;exitDx=0;exitDy=0;strokeColor=#457B9D;fontColor=#1D3557;labelBackgroundColor=#F1FAEE;" edge="1" parent="dNxyNK7c78bLwvsdeMH5-20" source="UX9EoWcXJ1RKvdyOowkk-33" target="UX9EoWcXJ1RKvdyOowkk-37">
          <mxGeometry relative="1" as="geometry" />
        </mxCell>
        <mxCell id="UX9EoWcXJ1RKvdyOowkk-33" value="是否接受（在诊室和不在诊室）" style="rhombus;whiteSpace=wrap;html=1;rounded=0;fontColor=#1D3557;fillColor=#A8DADC;strokeColor=#457B9D;" vertex="1" parent="dNxyNK7c78bLwvsdeMH5-20">
          <mxGeometry x="920" y="30" width="80" height="80" as="geometry" />
        </mxCell>
        <mxCell id="UX9EoWcXJ1RKvdyOowkk-37" value="开始视频问诊" style="rounded=0;whiteSpace=wrap;html=1;fontFamily=Helvetica;fontSize=12;fontColor=#1D3557;align=center;fillColor=#A8DADC;strokeColor=#457B9D;" vertex="1" parent="dNxyNK7c78bLwvsdeMH5-20">
          <mxGeometry x="1050" y="40" width="80" height="60" as="geometry" />
        </mxCell>
        <mxCell id="UX9EoWcXJ1RKvdyOowkk-46" value="追问（待议）" style="rounded=0;whiteSpace=wrap;html=1;fontFamily=Helvetica;fontSize=12;fontColor=#1D3557;align=center;fillColor=#A8DADC;strokeColor=#457B9D;" vertex="1" parent="dNxyNK7c78bLwvsdeMH5-20">
          <mxGeometry x="1310" y="40" width="80" height="60" as="geometry" />
        </mxCell>
        <mxCell id="UX9EoWcXJ1RKvdyOowkk-52" value="查看视频回放" style="rounded=0;whiteSpace=wrap;html=1;fontFamily=Helvetica;fontSize=12;fontColor=#1D3557;align=center;fillColor=#A8DADC;strokeColor=#457B9D;" vertex="1" parent="dNxyNK7c78bLwvsdeMH5-20">
          <mxGeometry x="1580" y="40" width="80" height="60" as="geometry" />
        </mxCell>
        <mxCell id="UX9EoWcXJ1RKvdyOowkk-75" value="评价" style="rounded=0;whiteSpace=wrap;html=1;fontFamily=Helvetica;fontSize=12;fontColor=#1D3557;align=center;fillColor=#A8DADC;strokeColor=#457B9D;" vertex="1" parent="dNxyNK7c78bLwvsdeMH5-20">
          <mxGeometry x="1720" y="40" width="80" height="60" as="geometry" />
        </mxCell>
        <mxCell id="UX9EoWcXJ1RKvdyOowkk-76" value="" style="edgeStyle=orthogonalEdgeStyle;rounded=0;orthogonalLoop=1;jettySize=auto;html=1;strokeColor=#457B9D;fontColor=#1D3557;labelBackgroundColor=#F1FAEE;" edge="1" parent="dNxyNK7c78bLwvsdeMH5-20" source="UX9EoWcXJ1RKvdyOowkk-52" target="UX9EoWcXJ1RKvdyOowkk-75">
          <mxGeometry relative="1" as="geometry" />
        </mxCell>
        <mxCell id="UX9EoWcXJ1RKvdyOowkk-77" value="追加服务" style="rounded=0;whiteSpace=wrap;html=1;fontFamily=Helvetica;fontSize=12;fontColor=#1D3557;align=center;fillColor=#A8DADC;strokeColor=#457B9D;" vertex="1" parent="dNxyNK7c78bLwvsdeMH5-20">
          <mxGeometry x="1860" y="40" width="80" height="60" as="geometry" />
        </mxCell>
        <mxCell id="UX9EoWcXJ1RKvdyOowkk-78" value="" style="edgeStyle=orthogonalEdgeStyle;rounded=0;orthogonalLoop=1;jettySize=auto;html=1;strokeColor=#457B9D;fontColor=#1D3557;labelBackgroundColor=#F1FAEE;" edge="1" parent="dNxyNK7c78bLwvsdeMH5-20" source="UX9EoWcXJ1RKvdyOowkk-75" target="UX9EoWcXJ1RKvdyOowkk-77">
          <mxGeometry relative="1" as="geometry" />
        </mxCell>
        <mxCell id="dNxyNK7c78bLwvsdeMH5-21" value="医生" style="swimlane;html=1;startSize=20;horizontal=0;fillColor=#A8DADC;strokeColor=#457B9D;fontColor=#1D3557;" parent="dNxyNK7c78bLwvsdeMH5-19" vertex="1">
          <mxGeometry x="20" y="140" width="1980" height="120" as="geometry" />
        </mxCell>
        <mxCell id="UX9EoWcXJ1RKvdyOowkk-7" value="开放诊室（到了排班期自动开放）" style="rounded=0;whiteSpace=wrap;html=1;fontFamily=Helvetica;fontSize=12;fontColor=#1D3557;align=center;fillColor=#A8DADC;strokeColor=#457B9D;" vertex="1" parent="dNxyNK7c78bLwvsdeMH5-21">
          <mxGeometry x="410" y="30" width="80" height="60" as="geometry" />
        </mxCell>
        <mxCell id="dNxyNK7c78bLwvsdeMH5-23" value="开始" style="ellipse;whiteSpace=wrap;html=1;fillColor=#A8DADC;strokeColor=#457B9D;fontColor=#1D3557;" parent="dNxyNK7c78bLwvsdeMH5-21" vertex="1">
          <mxGeometry x="60" y="40" width="40" height="40" as="geometry" />
        </mxCell>
        <mxCell id="dNxyNK7c78bLwvsdeMH5-24" value="医生入驻" style="rounded=0;whiteSpace=wrap;html=1;fontFamily=Helvetica;fontSize=12;fontColor=#1D3557;align=center;fillColor=#A8DADC;strokeColor=#457B9D;" parent="dNxyNK7c78bLwvsdeMH5-21" vertex="1">
          <mxGeometry x="150" y="30" width="80" height="60" as="geometry" />
        </mxCell>
        <mxCell id="dNxyNK7c78bLwvsdeMH5-25" value="" style="edgeStyle=orthogonalEdgeStyle;rounded=0;orthogonalLoop=1;jettySize=auto;html=1;strokeColor=#457B9D;fontColor=#1D3557;labelBackgroundColor=#F1FAEE;" parent="dNxyNK7c78bLwvsdeMH5-21" source="dNxyNK7c78bLwvsdeMH5-23" target="dNxyNK7c78bLwvsdeMH5-24" edge="1">
          <mxGeometry relative="1" as="geometry" />
        </mxCell>
        <mxCell id="UX9EoWcXJ1RKvdyOowkk-5" value="查看排班" style="rounded=0;whiteSpace=wrap;html=1;fontFamily=Helvetica;fontSize=12;fontColor=#1D3557;align=center;fillColor=#A8DADC;strokeColor=#457B9D;" vertex="1" parent="dNxyNK7c78bLwvsdeMH5-21">
          <mxGeometry x="280" y="30" width="80" height="60" as="geometry" />
        </mxCell>
        <mxCell id="UX9EoWcXJ1RKvdyOowkk-8" value="" style="edgeStyle=orthogonalEdgeStyle;rounded=0;orthogonalLoop=1;jettySize=auto;html=1;strokeColor=#457B9D;fontColor=#1D3557;labelBackgroundColor=#F1FAEE;" edge="1" parent="dNxyNK7c78bLwvsdeMH5-21" source="UX9EoWcXJ1RKvdyOowkk-5" target="UX9EoWcXJ1RKvdyOowkk-7">
          <mxGeometry relative="1" as="geometry" />
        </mxCell>
        <mxCell id="UX9EoWcXJ1RKvdyOowkk-28" value="查看患者信息" style="rounded=0;whiteSpace=wrap;html=1;fontFamily=Helvetica;fontSize=12;fontColor=#1D3557;align=center;fillColor=#A8DADC;strokeColor=#457B9D;" vertex="1" parent="dNxyNK7c78bLwvsdeMH5-21">
          <mxGeometry x="670" y="30" width="80" height="60" as="geometry" />
        </mxCell>
        <mxCell id="UX9EoWcXJ1RKvdyOowkk-31" value="发起视频邀请" style="rounded=0;whiteSpace=wrap;html=1;fontFamily=Helvetica;fontSize=12;fontColor=#1D3557;align=center;fillColor=#A8DADC;strokeColor=#457B9D;" vertex="1" parent="dNxyNK7c78bLwvsdeMH5-21">
          <mxGeometry x="810" y="30" width="80" height="60" as="geometry" />
        </mxCell>
        <mxCell id="UX9EoWcXJ1RKvdyOowkk-32" value="" style="edgeStyle=orthogonalEdgeStyle;rounded=0;orthogonalLoop=1;jettySize=auto;html=1;strokeColor=#457B9D;fontColor=#1D3557;labelBackgroundColor=#F1FAEE;" edge="1" parent="dNxyNK7c78bLwvsdeMH5-21" source="UX9EoWcXJ1RKvdyOowkk-28" target="UX9EoWcXJ1RKvdyOowkk-31">
          <mxGeometry relative="1" as="geometry" />
        </mxCell>
        <mxCell id="UX9EoWcXJ1RKvdyOowkk-40" value="记录病情" style="rounded=0;whiteSpace=wrap;html=1;fontFamily=Helvetica;fontSize=12;fontColor=#1D3557;align=center;fillColor=#A8DADC;strokeColor=#457B9D;" vertex="1" parent="dNxyNK7c78bLwvsdeMH5-21">
          <mxGeometry x="1050" y="30" width="80" height="60" as="geometry" />
        </mxCell>
        <mxCell id="UX9EoWcXJ1RKvdyOowkk-42" value="结束视频问诊" style="rounded=0;whiteSpace=wrap;html=1;fontFamily=Helvetica;fontSize=12;fontColor=#1D3557;align=center;fillColor=#A8DADC;strokeColor=#457B9D;" vertex="1" parent="dNxyNK7c78bLwvsdeMH5-21">
          <mxGeometry x="1180" y="30" width="80" height="60" as="geometry" />
        </mxCell>
        <mxCell id="UX9EoWcXJ1RKvdyOowkk-43" value="" style="edgeStyle=orthogonalEdgeStyle;rounded=0;orthogonalLoop=1;jettySize=auto;html=1;strokeColor=#457B9D;fontColor=#1D3557;labelBackgroundColor=#F1FAEE;" edge="1" parent="dNxyNK7c78bLwvsdeMH5-21" source="UX9EoWcXJ1RKvdyOowkk-40" target="UX9EoWcXJ1RKvdyOowkk-42">
          <mxGeometry relative="1" as="geometry" />
        </mxCell>
        <mxCell id="UX9EoWcXJ1RKvdyOowkk-44" value="写病历/问诊建议/医嘱" style="rounded=0;whiteSpace=wrap;html=1;fontFamily=Helvetica;fontSize=12;fontColor=#1D3557;align=center;fillColor=#A8DADC;strokeColor=#457B9D;" vertex="1" parent="dNxyNK7c78bLwvsdeMH5-21">
          <mxGeometry x="1310" y="30" width="80" height="60" as="geometry" />
        </mxCell>
        <mxCell id="UX9EoWcXJ1RKvdyOowkk-45" value="" style="edgeStyle=orthogonalEdgeStyle;rounded=0;orthogonalLoop=1;jettySize=auto;html=1;strokeColor=#457B9D;fontColor=#1D3557;labelBackgroundColor=#F1FAEE;" edge="1" parent="dNxyNK7c78bLwvsdeMH5-21" source="UX9EoWcXJ1RKvdyOowkk-42" target="UX9EoWcXJ1RKvdyOowkk-44">
          <mxGeometry relative="1" as="geometry" />
        </mxCell>
        <mxCell id="UX9EoWcXJ1RKvdyOowkk-48" value="回复消息" style="rounded=0;whiteSpace=wrap;html=1;fontFamily=Helvetica;fontSize=12;fontColor=#1D3557;align=center;fillColor=#A8DADC;strokeColor=#457B9D;" vertex="1" parent="dNxyNK7c78bLwvsdeMH5-21">
          <mxGeometry x="1434" y="30" width="80" height="60" as="geometry" />
        </mxCell>
        <mxCell id="UX9EoWcXJ1RKvdyOowkk-50" value="结束服务" style="rounded=0;whiteSpace=wrap;html=1;fontFamily=Helvetica;fontSize=12;fontColor=#1D3557;align=center;fillColor=#A8DADC;strokeColor=#457B9D;" vertex="1" parent="dNxyNK7c78bLwvsdeMH5-21">
          <mxGeometry x="1580" y="30" width="80" height="60" as="geometry" />
        </mxCell>
        <mxCell id="UX9EoWcXJ1RKvdyOowkk-51" value="" style="edgeStyle=orthogonalEdgeStyle;rounded=0;orthogonalLoop=1;jettySize=auto;html=1;strokeColor=#457B9D;fontColor=#1D3557;labelBackgroundColor=#F1FAEE;" edge="1" parent="dNxyNK7c78bLwvsdeMH5-21" source="UX9EoWcXJ1RKvdyOowkk-48" target="UX9EoWcXJ1RKvdyOowkk-50">
          <mxGeometry relative="1" as="geometry" />
        </mxCell>
        <mxCell id="dNxyNK7c78bLwvsdeMH5-22" value="平台" style="swimlane;html=1;startSize=20;horizontal=0;fillColor=#A8DADC;strokeColor=#457B9D;fontColor=#1D3557;" parent="dNxyNK7c78bLwvsdeMH5-19" vertex="1">
          <mxGeometry x="20" y="260" width="1980" height="130" as="geometry" />
        </mxCell>
        <mxCell id="UX9EoWcXJ1RKvdyOowkk-3" value="创建排班表" style="rounded=0;whiteSpace=wrap;html=1;fontFamily=Helvetica;fontSize=12;fontColor=#1D3557;align=center;fillColor=#A8DADC;strokeColor=#457B9D;" vertex="1" parent="dNxyNK7c78bLwvsdeMH5-22">
          <mxGeometry x="150" y="35" width="80" height="60" as="geometry" />
        </mxCell>
        <mxCell id="UX9EoWcXJ1RKvdyOowkk-71" value="问诊订单开始" style="ellipse;whiteSpace=wrap;html=1;rounded=0;fontColor=#1D3557;fillColor=#A8DADC;strokeColor=#457B9D;" vertex="1" parent="dNxyNK7c78bLwvsdeMH5-22">
          <mxGeometry x="380" y="35" width="120" height="60" as="geometry" />
        </mxCell>
        <mxCell id="UX9EoWcXJ1RKvdyOowkk-79" value="问诊订单结束" style="ellipse;whiteSpace=wrap;html=1;rounded=0;fontColor=#1D3557;fillColor=#A8DADC;strokeColor=#457B9D;" vertex="1" parent="dNxyNK7c78bLwvsdeMH5-22">
          <mxGeometry x="1560" y="35" width="120" height="60" as="geometry" />
        </mxCell>
        <mxCell id="UX9EoWcXJ1RKvdyOowkk-81" value="开启新订单" style="ellipse;whiteSpace=wrap;html=1;rounded=0;fontColor=#1D3557;fillColor=#A8DADC;strokeColor=#457B9D;" vertex="1" parent="dNxyNK7c78bLwvsdeMH5-22">
          <mxGeometry x="1840" y="35" width="120" height="60" as="geometry" />
        </mxCell>
        <mxCell id="UX9EoWcXJ1RKvdyOowkk-11" style="edgeStyle=orthogonalEdgeStyle;rounded=0;orthogonalLoop=1;jettySize=auto;html=1;exitX=0.5;exitY=1;exitDx=0;exitDy=0;entryX=0.5;entryY=0;entryDx=0;entryDy=0;strokeColor=#457B9D;fontColor=#1D3557;labelBackgroundColor=#F1FAEE;" edge="1" parent="dNxyNK7c78bLwvsdeMH5-19" source="dNxyNK7c78bLwvsdeMH5-24" target="UX9EoWcXJ1RKvdyOowkk-3">
          <mxGeometry relative="1" as="geometry" />
        </mxCell>
        <mxCell id="UX9EoWcXJ1RKvdyOowkk-12" style="edgeStyle=orthogonalEdgeStyle;rounded=0;orthogonalLoop=1;jettySize=auto;html=1;exitX=1;exitY=0.5;exitDx=0;exitDy=0;entryX=0.5;entryY=1;entryDx=0;entryDy=0;strokeColor=#457B9D;fontColor=#1D3557;labelBackgroundColor=#F1FAEE;" edge="1" parent="dNxyNK7c78bLwvsdeMH5-19" source="UX9EoWcXJ1RKvdyOowkk-3" target="UX9EoWcXJ1RKvdyOowkk-5">
          <mxGeometry relative="1" as="geometry" />
        </mxCell>
        <mxCell id="UX9EoWcXJ1RKvdyOowkk-22" style="edgeStyle=orthogonalEdgeStyle;rounded=0;orthogonalLoop=1;jettySize=auto;html=1;exitX=1;exitY=0.5;exitDx=0;exitDy=0;entryX=0.5;entryY=1;entryDx=0;entryDy=0;strokeColor=#457B9D;fontColor=#1D3557;labelBackgroundColor=#F1FAEE;" edge="1" parent="dNxyNK7c78bLwvsdeMH5-19" source="UX9EoWcXJ1RKvdyOowkk-7" target="UX9EoWcXJ1RKvdyOowkk-20">
          <mxGeometry relative="1" as="geometry" />
        </mxCell>
        <mxCell id="UX9EoWcXJ1RKvdyOowkk-30" style="edgeStyle=orthogonalEdgeStyle;rounded=0;orthogonalLoop=1;jettySize=auto;html=1;exitX=0.5;exitY=1;exitDx=0;exitDy=0;strokeColor=#457B9D;fontColor=#1D3557;labelBackgroundColor=#F1FAEE;" edge="1" parent="dNxyNK7c78bLwvsdeMH5-19" source="UX9EoWcXJ1RKvdyOowkk-24" target="UX9EoWcXJ1RKvdyOowkk-28">
          <mxGeometry relative="1" as="geometry" />
        </mxCell>
        <mxCell id="UX9EoWcXJ1RKvdyOowkk-34" value="" style="edgeStyle=orthogonalEdgeStyle;rounded=0;orthogonalLoop=1;jettySize=auto;html=1;strokeColor=#457B9D;fontColor=#1D3557;labelBackgroundColor=#F1FAEE;" edge="1" parent="dNxyNK7c78bLwvsdeMH5-19" source="UX9EoWcXJ1RKvdyOowkk-31" target="UX9EoWcXJ1RKvdyOowkk-33">
          <mxGeometry relative="1" as="geometry" />
        </mxCell>
        <mxCell id="UX9EoWcXJ1RKvdyOowkk-41" value="" style="edgeStyle=orthogonalEdgeStyle;rounded=0;orthogonalLoop=1;jettySize=auto;html=1;strokeColor=#457B9D;fontColor=#1D3557;labelBackgroundColor=#F1FAEE;" edge="1" parent="dNxyNK7c78bLwvsdeMH5-19" source="UX9EoWcXJ1RKvdyOowkk-37" target="UX9EoWcXJ1RKvdyOowkk-40">
          <mxGeometry relative="1" as="geometry" />
        </mxCell>
        <mxCell id="UX9EoWcXJ1RKvdyOowkk-47" value="" style="edgeStyle=orthogonalEdgeStyle;rounded=0;orthogonalLoop=1;jettySize=auto;html=1;strokeColor=#457B9D;fontColor=#1D3557;labelBackgroundColor=#F1FAEE;" edge="1" parent="dNxyNK7c78bLwvsdeMH5-19" source="UX9EoWcXJ1RKvdyOowkk-44" target="UX9EoWcXJ1RKvdyOowkk-46">
          <mxGeometry relative="1" as="geometry" />
        </mxCell>
        <mxCell id="UX9EoWcXJ1RKvdyOowkk-49" value="" style="edgeStyle=orthogonalEdgeStyle;rounded=0;orthogonalLoop=1;jettySize=auto;html=1;strokeColor=#457B9D;fontColor=#1D3557;labelBackgroundColor=#F1FAEE;" edge="1" parent="dNxyNK7c78bLwvsdeMH5-19" source="UX9EoWcXJ1RKvdyOowkk-46" target="UX9EoWcXJ1RKvdyOowkk-48">
          <mxGeometry relative="1" as="geometry" />
        </mxCell>
        <mxCell id="UX9EoWcXJ1RKvdyOowkk-53" value="" style="edgeStyle=orthogonalEdgeStyle;rounded=0;orthogonalLoop=1;jettySize=auto;html=1;strokeColor=#457B9D;fontColor=#1D3557;labelBackgroundColor=#F1FAEE;" edge="1" parent="dNxyNK7c78bLwvsdeMH5-19" source="UX9EoWcXJ1RKvdyOowkk-50" target="UX9EoWcXJ1RKvdyOowkk-52">
          <mxGeometry relative="1" as="geometry" />
        </mxCell>
        <mxCell id="UX9EoWcXJ1RKvdyOowkk-73" style="edgeStyle=orthogonalEdgeStyle;rounded=0;orthogonalLoop=1;jettySize=auto;html=1;exitX=1;exitY=0.5;exitDx=0;exitDy=0;entryX=1;entryY=0.5;entryDx=0;entryDy=0;strokeColor=#457B9D;fontColor=#1D3557;labelBackgroundColor=#F1FAEE;" edge="1" parent="dNxyNK7c78bLwvsdeMH5-19" source="UX9EoWcXJ1RKvdyOowkk-18" target="UX9EoWcXJ1RKvdyOowkk-71">
          <mxGeometry relative="1" as="geometry">
            <Array as="points">
              <mxPoint x="540" y="70" />
              <mxPoint x="540" y="325" />
            </Array>
          </mxGeometry>
        </mxCell>
        <mxCell id="UX9EoWcXJ1RKvdyOowkk-80" value="" style="edgeStyle=orthogonalEdgeStyle;rounded=0;orthogonalLoop=1;jettySize=auto;html=1;strokeColor=#457B9D;fontColor=#1D3557;labelBackgroundColor=#F1FAEE;" edge="1" parent="dNxyNK7c78bLwvsdeMH5-19" source="UX9EoWcXJ1RKvdyOowkk-50" target="UX9EoWcXJ1RKvdyOowkk-79">
          <mxGeometry relative="1" as="geometry" />
        </mxCell>
        <mxCell id="UX9EoWcXJ1RKvdyOowkk-82" value="" style="edgeStyle=orthogonalEdgeStyle;rounded=0;orthogonalLoop=1;jettySize=auto;html=1;strokeColor=#457B9D;fontColor=#1D3557;labelBackgroundColor=#F1FAEE;" edge="1" parent="dNxyNK7c78bLwvsdeMH5-19" source="UX9EoWcXJ1RKvdyOowkk-77" target="UX9EoWcXJ1RKvdyOowkk-81">
          <mxGeometry relative="1" as="geometry" />
        </mxCell>
        <mxCell id="UX9EoWcXJ1RKvdyOowkk-85" value="问诊前" style="swimlane;rounded=0;sketch=0;fontColor=#1D3557;strokeColor=#457B9D;fillColor=#A8DADC;" vertex="1" parent="1">
          <mxGeometry x="160" y="96" width="890" height="414" as="geometry">
            <mxRectangle x="160" y="96" width="70" height="23" as="alternateBounds" />
          </mxGeometry>
        </mxCell>
        <mxCell id="UX9EoWcXJ1RKvdyOowkk-86" value="问诊后" style="swimlane;rounded=0;sketch=0;fontColor=#1D3557;strokeColor=#457B9D;fillColor=#A8DADC;" vertex="1" parent="1">
          <mxGeometry x="1410" y="96" width="710" height="414" as="geometry" />
        </mxCell>
        <mxCell id="UX9EoWcXJ1RKvdyOowkk-87" value="问诊中" style="swimlane;rounded=0;sketch=0;fontColor=#1D3557;strokeColor=#457B9D;fillColor=#A8DADC;" vertex="1" parent="1">
          <mxGeometry x="1050" y="96" width="360" height="414" as="geometry" />
        </mxCell>
      </root>
    </mxGraphModel>
  </diagram>
</mxfile>
